<mxfile host="Electron" modified="2023-11-22T00:07:04.085Z" agent="Mozilla/5.0 (Windows NT 10.0; Win64; x64) AppleWebKit/537.36 (KHTML, like Gecko) draw.io/22.1.2 Chrome/114.0.5735.289 Electron/25.9.4 Safari/537.36" etag="zK_veneV-T6Dej4o8Qsp" version="22.1.2" type="device">
  <diagram name="Página-1" id="H21Rfft9ebGggQR6fzaU">
    <mxGraphModel dx="1509" dy="774" grid="1" gridSize="10" guides="1" tooltips="1" connect="1" arrows="1" fold="1" page="1" pageScale="1" pageWidth="827" pageHeight="1169" math="0" shadow="0">
      <root>
        <mxCell id="0" />
        <mxCell id="1" parent="0" />
        <mxCell id="Ld-zjlxl5PX5TL3efofP-8" style="edgeStyle=orthogonalEdgeStyle;rounded=0;orthogonalLoop=1;jettySize=auto;html=1;entryX=1;entryY=0.5;entryDx=0;entryDy=0;" edge="1" parent="1" source="Ld-zjlxl5PX5TL3efofP-2" target="Ld-zjlxl5PX5TL3efofP-3">
          <mxGeometry relative="1" as="geometry" />
        </mxCell>
        <mxCell id="Ld-zjlxl5PX5TL3efofP-2" value="Definição de nome e objetivos da empresa" style="rounded=1;whiteSpace=wrap;html=1;" vertex="1" parent="1">
          <mxGeometry x="630" y="100" width="190" height="70" as="geometry" />
        </mxCell>
        <mxCell id="Ld-zjlxl5PX5TL3efofP-9" style="edgeStyle=orthogonalEdgeStyle;rounded=0;orthogonalLoop=1;jettySize=auto;html=1;entryX=1;entryY=0.5;entryDx=0;entryDy=0;" edge="1" parent="1" source="Ld-zjlxl5PX5TL3efofP-3" target="Ld-zjlxl5PX5TL3efofP-5">
          <mxGeometry relative="1" as="geometry" />
        </mxCell>
        <mxCell id="Ld-zjlxl5PX5TL3efofP-3" value="Nome e objetivos do projeto" style="rounded=1;whiteSpace=wrap;html=1;" vertex="1" parent="1">
          <mxGeometry x="550" y="180" width="150" height="60" as="geometry" />
        </mxCell>
        <mxCell id="Ld-zjlxl5PX5TL3efofP-10" style="edgeStyle=orthogonalEdgeStyle;rounded=0;orthogonalLoop=1;jettySize=auto;html=1;entryX=1;entryY=0.5;entryDx=0;entryDy=0;" edge="1" parent="1" source="Ld-zjlxl5PX5TL3efofP-5" target="Ld-zjlxl5PX5TL3efofP-7">
          <mxGeometry relative="1" as="geometry" />
        </mxCell>
        <mxCell id="Ld-zjlxl5PX5TL3efofP-5" value="Divisão de tarefas" style="rounded=1;whiteSpace=wrap;html=1;" vertex="1" parent="1">
          <mxGeometry x="484" y="250" width="120" height="60" as="geometry" />
        </mxCell>
        <mxCell id="Ld-zjlxl5PX5TL3efofP-13" style="edgeStyle=orthogonalEdgeStyle;rounded=0;orthogonalLoop=1;jettySize=auto;html=1;entryX=1;entryY=0.5;entryDx=0;entryDy=0;" edge="1" parent="1" source="Ld-zjlxl5PX5TL3efofP-6" target="Ld-zjlxl5PX5TL3efofP-12">
          <mxGeometry relative="1" as="geometry" />
        </mxCell>
        <mxCell id="Ld-zjlxl5PX5TL3efofP-6" value="Fazer documentação" style="rounded=1;whiteSpace=wrap;html=1;" vertex="1" parent="1">
          <mxGeometry x="300" y="390" width="120" height="60" as="geometry" />
        </mxCell>
        <mxCell id="Ld-zjlxl5PX5TL3efofP-11" style="edgeStyle=orthogonalEdgeStyle;rounded=0;orthogonalLoop=1;jettySize=auto;html=1;entryX=1;entryY=0.5;entryDx=0;entryDy=0;" edge="1" parent="1" source="Ld-zjlxl5PX5TL3efofP-7" target="Ld-zjlxl5PX5TL3efofP-6">
          <mxGeometry relative="1" as="geometry" />
        </mxCell>
        <mxCell id="Ld-zjlxl5PX5TL3efofP-7" value="Incrementar diagramas" style="rounded=1;whiteSpace=wrap;html=1;" vertex="1" parent="1">
          <mxGeometry x="380" y="320" width="136" height="60" as="geometry" />
        </mxCell>
        <mxCell id="Ld-zjlxl5PX5TL3efofP-15" style="edgeStyle=orthogonalEdgeStyle;rounded=0;orthogonalLoop=1;jettySize=auto;html=1;entryX=1;entryY=0.5;entryDx=0;entryDy=0;" edge="1" parent="1" source="Ld-zjlxl5PX5TL3efofP-12" target="Ld-zjlxl5PX5TL3efofP-14">
          <mxGeometry relative="1" as="geometry" />
        </mxCell>
        <mxCell id="Ld-zjlxl5PX5TL3efofP-12" value="Esboço" style="rounded=1;whiteSpace=wrap;html=1;" vertex="1" parent="1">
          <mxGeometry x="220" y="460" width="120" height="60" as="geometry" />
        </mxCell>
        <mxCell id="Ld-zjlxl5PX5TL3efofP-17" style="edgeStyle=orthogonalEdgeStyle;rounded=0;orthogonalLoop=1;jettySize=auto;html=1;entryX=1;entryY=0.5;entryDx=0;entryDy=0;" edge="1" parent="1" source="Ld-zjlxl5PX5TL3efofP-14" target="Ld-zjlxl5PX5TL3efofP-16">
          <mxGeometry relative="1" as="geometry" />
        </mxCell>
        <mxCell id="Ld-zjlxl5PX5TL3efofP-14" value="Programar código" style="rounded=1;whiteSpace=wrap;html=1;" vertex="1" parent="1">
          <mxGeometry x="140" y="530" width="120" height="60" as="geometry" />
        </mxCell>
        <mxCell id="Ld-zjlxl5PX5TL3efofP-16" value="Testes e finalização&amp;nbsp;" style="rounded=1;whiteSpace=wrap;html=1;" vertex="1" parent="1">
          <mxGeometry x="50" y="600" width="120" height="60" as="geometry" />
        </mxCell>
        <mxCell id="Ld-zjlxl5PX5TL3efofP-18" value="Concluido, apesar de diversas alterações" style="text;html=1;align=center;verticalAlign=middle;resizable=0;points=[];autosize=1;strokeColor=none;fillColor=none;" vertex="1" parent="1">
          <mxGeometry x="364" y="110" width="240" height="30" as="geometry" />
        </mxCell>
        <mxCell id="Ld-zjlxl5PX5TL3efofP-19" value="Após varias discussões o nome e objetivos do projeto foram bem elaborados" style="text;html=1;align=center;verticalAlign=middle;resizable=0;points=[];autosize=1;strokeColor=none;fillColor=none;" vertex="1" parent="1">
          <mxGeometry x="100" y="195" width="430" height="30" as="geometry" />
        </mxCell>
        <mxCell id="Ld-zjlxl5PX5TL3efofP-20" value="Não foi facil enquadrar todo mundo á suas devidas tarefas, mas foi concluido" style="text;html=1;align=center;verticalAlign=middle;resizable=0;points=[];autosize=1;strokeColor=none;fillColor=none;" vertex="1" parent="1">
          <mxGeometry x="40" y="258" width="430" height="30" as="geometry" />
        </mxCell>
        <mxCell id="Ld-zjlxl5PX5TL3efofP-21" value="Foram feitos o diagrama de classes e caso de uso apenas" style="text;html=1;align=center;verticalAlign=middle;resizable=0;points=[];autosize=1;strokeColor=none;fillColor=none;" vertex="1" parent="1">
          <mxGeometry x="40" y="335" width="330" height="30" as="geometry" />
        </mxCell>
        <mxCell id="Ld-zjlxl5PX5TL3efofP-22" value="Aparentemente não finalizado" style="text;html=1;align=center;verticalAlign=middle;resizable=0;points=[];autosize=1;strokeColor=none;fillColor=none;" vertex="1" parent="1">
          <mxGeometry x="100" y="398" width="180" height="30" as="geometry" />
        </mxCell>
        <mxCell id="Ld-zjlxl5PX5TL3efofP-23" value="Apartir daqui não acabado" style="text;html=1;align=center;verticalAlign=middle;resizable=0;points=[];autosize=1;strokeColor=none;fillColor=none;" vertex="1" parent="1">
          <mxGeometry x="40" y="475" width="160" height="30" as="geometry" />
        </mxCell>
      </root>
    </mxGraphModel>
  </diagram>
</mxfile>
